<mxfile host="app.diagrams.net" agent="Mozilla/5.0 (Windows NT 10.0; Win64; x64) AppleWebKit/537.36 (KHTML, like Gecko) Chrome/130.0.0.0 Safari/537.36" version="26.0.16">
  <diagram name="Page-1" id="L0kBNDUl-OlxQrCFC4NG">
    <mxGraphModel dx="1687" dy="868" grid="1" gridSize="10" guides="1" tooltips="1" connect="1" arrows="1" fold="1" page="1" pageScale="1" pageWidth="850" pageHeight="1100" math="0" shadow="0">
      <root>
        <mxCell id="0" />
        <mxCell id="1" parent="0" />
        <mxCell id="6nYdl9-kLl9mEXdUdbPc-1" value="Main" style="swimlane;fontStyle=1;align=center;verticalAlign=top;childLayout=stackLayout;horizontal=1;startSize=47.2;horizontalStack=0;resizeParent=1;resizeParentMax=0;resizeLast=0;collapsible=0;marginBottom=0;" vertex="1" parent="1">
          <mxGeometry x="760" y="480" width="95" height="102.2" as="geometry" />
        </mxCell>
        <mxCell id="6nYdl9-kLl9mEXdUdbPc-2" style="line;strokeWidth=1;fillColor=none;align=left;verticalAlign=middle;spacingTop=-1;spacingLeft=3;spacingRight=3;rotatable=0;labelPosition=right;points=[];portConstraint=eastwest;strokeColor=inherit;" vertex="1" parent="6nYdl9-kLl9mEXdUdbPc-1">
          <mxGeometry y="47.2" width="95" height="8" as="geometry" />
        </mxCell>
        <mxCell id="6nYdl9-kLl9mEXdUdbPc-3" value="+Main()" style="text;strokeColor=none;fillColor=none;align=left;verticalAlign=top;spacingLeft=4;spacingRight=4;overflow=hidden;rotatable=0;points=[[0,0.5],[1,0.5]];portConstraint=eastwest;" vertex="1" parent="6nYdl9-kLl9mEXdUdbPc-1">
          <mxGeometry y="55.2" width="95" height="47" as="geometry" />
        </mxCell>
        <mxCell id="6nYdl9-kLl9mEXdUdbPc-4" value="PatientManagementGUI" style="swimlane;fontStyle=1;align=center;verticalAlign=top;childLayout=stackLayout;horizontal=1;startSize=47.2;horizontalStack=0;resizeParent=1;resizeParentMax=0;resizeLast=0;collapsible=0;marginBottom=0;" vertex="1" parent="1">
          <mxGeometry x="20" y="679" width="299" height="102.2" as="geometry" />
        </mxCell>
        <mxCell id="6nYdl9-kLl9mEXdUdbPc-5" style="line;strokeWidth=1;fillColor=none;align=left;verticalAlign=middle;spacingTop=-1;spacingLeft=3;spacingRight=3;rotatable=0;labelPosition=right;points=[];portConstraint=eastwest;strokeColor=inherit;" vertex="1" parent="6nYdl9-kLl9mEXdUdbPc-4">
          <mxGeometry y="47.2" width="299" height="8" as="geometry" />
        </mxCell>
        <mxCell id="6nYdl9-kLl9mEXdUdbPc-6" value="+PatientManagementGUI()" style="text;strokeColor=none;fillColor=none;align=left;verticalAlign=top;spacingLeft=4;spacingRight=4;overflow=hidden;rotatable=0;points=[[0,0.5],[1,0.5]];portConstraint=eastwest;" vertex="1" parent="6nYdl9-kLl9mEXdUdbPc-4">
          <mxGeometry y="55.2" width="299" height="47" as="geometry" />
        </mxCell>
        <mxCell id="6nYdl9-kLl9mEXdUdbPc-7" value="CardManagementGUI" style="swimlane;fontStyle=1;align=center;verticalAlign=top;childLayout=stackLayout;horizontal=1;startSize=47.2;horizontalStack=0;resizeParent=1;resizeParentMax=0;resizeLast=0;collapsible=0;marginBottom=0;" vertex="1" parent="1">
          <mxGeometry x="369" y="679" width="271" height="102.2" as="geometry" />
        </mxCell>
        <mxCell id="6nYdl9-kLl9mEXdUdbPc-8" style="line;strokeWidth=1;fillColor=none;align=left;verticalAlign=middle;spacingTop=-1;spacingLeft=3;spacingRight=3;rotatable=0;labelPosition=right;points=[];portConstraint=eastwest;strokeColor=inherit;" vertex="1" parent="6nYdl9-kLl9mEXdUdbPc-7">
          <mxGeometry y="47.2" width="271" height="8" as="geometry" />
        </mxCell>
        <mxCell id="6nYdl9-kLl9mEXdUdbPc-9" value="+CardManagementGUI()" style="text;strokeColor=none;fillColor=none;align=left;verticalAlign=top;spacingLeft=4;spacingRight=4;overflow=hidden;rotatable=0;points=[[0,0.5],[1,0.5]];portConstraint=eastwest;" vertex="1" parent="6nYdl9-kLl9mEXdUdbPc-7">
          <mxGeometry y="55.2" width="271" height="47" as="geometry" />
        </mxCell>
        <mxCell id="6nYdl9-kLl9mEXdUdbPc-10" value="AccessControlGUI" style="swimlane;fontStyle=1;align=center;verticalAlign=top;childLayout=stackLayout;horizontal=1;startSize=47.2;horizontalStack=0;resizeParent=1;resizeParentMax=0;resizeLast=0;collapsible=0;marginBottom=0;" vertex="1" parent="1">
          <mxGeometry x="690" y="679" width="235" height="102.2" as="geometry" />
        </mxCell>
        <mxCell id="6nYdl9-kLl9mEXdUdbPc-11" style="line;strokeWidth=1;fillColor=none;align=left;verticalAlign=middle;spacingTop=-1;spacingLeft=3;spacingRight=3;rotatable=0;labelPosition=right;points=[];portConstraint=eastwest;strokeColor=inherit;" vertex="1" parent="6nYdl9-kLl9mEXdUdbPc-10">
          <mxGeometry y="47.2" width="235" height="8" as="geometry" />
        </mxCell>
        <mxCell id="6nYdl9-kLl9mEXdUdbPc-12" value="+AccessControlGUI()" style="text;strokeColor=none;fillColor=none;align=left;verticalAlign=top;spacingLeft=4;spacingRight=4;overflow=hidden;rotatable=0;points=[[0,0.5],[1,0.5]];portConstraint=eastwest;" vertex="1" parent="6nYdl9-kLl9mEXdUdbPc-10">
          <mxGeometry y="55.2" width="235" height="47" as="geometry" />
        </mxCell>
        <mxCell id="6nYdl9-kLl9mEXdUdbPc-13" value="TimeSettingGUI" style="swimlane;fontStyle=1;align=center;verticalAlign=top;childLayout=stackLayout;horizontal=1;startSize=47.2;horizontalStack=0;resizeParent=1;resizeParentMax=0;resizeLast=0;collapsible=0;marginBottom=0;" vertex="1" parent="1">
          <mxGeometry x="975" y="679" width="213" height="102.2" as="geometry" />
        </mxCell>
        <mxCell id="6nYdl9-kLl9mEXdUdbPc-14" style="line;strokeWidth=1;fillColor=none;align=left;verticalAlign=middle;spacingTop=-1;spacingLeft=3;spacingRight=3;rotatable=0;labelPosition=right;points=[];portConstraint=eastwest;strokeColor=inherit;" vertex="1" parent="6nYdl9-kLl9mEXdUdbPc-13">
          <mxGeometry y="47.2" width="213" height="8" as="geometry" />
        </mxCell>
        <mxCell id="6nYdl9-kLl9mEXdUdbPc-15" value="+TimeSettingGUI()" style="text;strokeColor=none;fillColor=none;align=left;verticalAlign=top;spacingLeft=4;spacingRight=4;overflow=hidden;rotatable=0;points=[[0,0.5],[1,0.5]];portConstraint=eastwest;" vertex="1" parent="6nYdl9-kLl9mEXdUdbPc-13">
          <mxGeometry y="55.2" width="213" height="47" as="geometry" />
        </mxCell>
        <mxCell id="6nYdl9-kLl9mEXdUdbPc-16" value="PatientAndAccessGUI" style="swimlane;fontStyle=1;align=center;verticalAlign=top;childLayout=stackLayout;horizontal=1;startSize=47.2;horizontalStack=0;resizeParent=1;resizeParentMax=0;resizeLast=0;collapsible=0;marginBottom=0;" vertex="1" parent="1">
          <mxGeometry x="1238" y="679" width="274" height="102.2" as="geometry" />
        </mxCell>
        <mxCell id="6nYdl9-kLl9mEXdUdbPc-17" style="line;strokeWidth=1;fillColor=none;align=left;verticalAlign=middle;spacingTop=-1;spacingLeft=3;spacingRight=3;rotatable=0;labelPosition=right;points=[];portConstraint=eastwest;strokeColor=inherit;" vertex="1" parent="6nYdl9-kLl9mEXdUdbPc-16">
          <mxGeometry y="47.2" width="274" height="8" as="geometry" />
        </mxCell>
        <mxCell id="6nYdl9-kLl9mEXdUdbPc-18" value="+PatientAndAccessGUI()" style="text;strokeColor=none;fillColor=none;align=left;verticalAlign=top;spacingLeft=4;spacingRight=4;overflow=hidden;rotatable=0;points=[[0,0.5],[1,0.5]];portConstraint=eastwest;" vertex="1" parent="6nYdl9-kLl9mEXdUdbPc-16">
          <mxGeometry y="55.2" width="274" height="47" as="geometry" />
        </mxCell>
        <mxCell id="6nYdl9-kLl9mEXdUdbPc-19" value="PatientManager" style="swimlane;fontStyle=1;align=center;verticalAlign=top;childLayout=stackLayout;horizontal=1;startSize=47.2;horizontalStack=0;resizeParent=1;resizeParentMax=0;resizeLast=0;collapsible=0;marginBottom=0;" vertex="1" parent="1">
          <mxGeometry x="63" y="878" width="213" height="102.2" as="geometry" />
        </mxCell>
        <mxCell id="6nYdl9-kLl9mEXdUdbPc-20" style="line;strokeWidth=1;fillColor=none;align=left;verticalAlign=middle;spacingTop=-1;spacingLeft=3;spacingRight=3;rotatable=0;labelPosition=right;points=[];portConstraint=eastwest;strokeColor=inherit;" vertex="1" parent="6nYdl9-kLl9mEXdUdbPc-19">
          <mxGeometry y="47.2" width="213" height="8" as="geometry" />
        </mxCell>
        <mxCell id="6nYdl9-kLl9mEXdUdbPc-21" value="+PatientManager()" style="text;strokeColor=none;fillColor=none;align=left;verticalAlign=top;spacingLeft=4;spacingRight=4;overflow=hidden;rotatable=0;points=[[0,0.5],[1,0.5]];portConstraint=eastwest;" vertex="1" parent="6nYdl9-kLl9mEXdUdbPc-19">
          <mxGeometry y="55.2" width="213" height="47" as="geometry" />
        </mxCell>
        <mxCell id="6nYdl9-kLl9mEXdUdbPc-22" value="CardManager" style="swimlane;fontStyle=1;align=center;verticalAlign=top;childLayout=stackLayout;horizontal=1;startSize=47.2;horizontalStack=0;resizeParent=1;resizeParentMax=0;resizeLast=0;collapsible=0;marginBottom=0;" vertex="1" parent="1">
          <mxGeometry x="439" y="878" width="186" height="102.2" as="geometry" />
        </mxCell>
        <mxCell id="6nYdl9-kLl9mEXdUdbPc-23" style="line;strokeWidth=1;fillColor=none;align=left;verticalAlign=middle;spacingTop=-1;spacingLeft=3;spacingRight=3;rotatable=0;labelPosition=right;points=[];portConstraint=eastwest;strokeColor=inherit;" vertex="1" parent="6nYdl9-kLl9mEXdUdbPc-22">
          <mxGeometry y="47.2" width="186" height="8" as="geometry" />
        </mxCell>
        <mxCell id="6nYdl9-kLl9mEXdUdbPc-24" value="+CardManager()" style="text;strokeColor=none;fillColor=none;align=left;verticalAlign=top;spacingLeft=4;spacingRight=4;overflow=hidden;rotatable=0;points=[[0,0.5],[1,0.5]];portConstraint=eastwest;" vertex="1" parent="6nYdl9-kLl9mEXdUdbPc-22">
          <mxGeometry y="55.2" width="186" height="47" as="geometry" />
        </mxCell>
        <mxCell id="6nYdl9-kLl9mEXdUdbPc-25" value="FloorAccessManager" style="swimlane;fontStyle=1;align=center;verticalAlign=top;childLayout=stackLayout;horizontal=1;startSize=47.2;horizontalStack=0;resizeParent=1;resizeParentMax=0;resizeLast=0;collapsible=0;marginBottom=0;" vertex="1" parent="1">
          <mxGeometry x="915" y="878" width="263" height="102.2" as="geometry" />
        </mxCell>
        <mxCell id="6nYdl9-kLl9mEXdUdbPc-26" style="line;strokeWidth=1;fillColor=none;align=left;verticalAlign=middle;spacingTop=-1;spacingLeft=3;spacingRight=3;rotatable=0;labelPosition=right;points=[];portConstraint=eastwest;strokeColor=inherit;" vertex="1" parent="6nYdl9-kLl9mEXdUdbPc-25">
          <mxGeometry y="47.2" width="263" height="8" as="geometry" />
        </mxCell>
        <mxCell id="6nYdl9-kLl9mEXdUdbPc-27" value="+FloorAccessManager()" style="text;strokeColor=none;fillColor=none;align=left;verticalAlign=top;spacingLeft=4;spacingRight=4;overflow=hidden;rotatable=0;points=[[0,0.5],[1,0.5]];portConstraint=eastwest;" vertex="1" parent="6nYdl9-kLl9mEXdUdbPc-25">
          <mxGeometry y="55.2" width="263" height="47" as="geometry" />
        </mxCell>
        <mxCell id="6nYdl9-kLl9mEXdUdbPc-28" value="DoctorCard" style="swimlane;fontStyle=1;align=center;verticalAlign=top;childLayout=stackLayout;horizontal=1;startSize=47.2;horizontalStack=0;resizeParent=1;resizeParentMax=0;resizeLast=0;collapsible=0;marginBottom=0;" vertex="1" parent="1">
          <mxGeometry x="448" y="1077" width="167" height="102.2" as="geometry" />
        </mxCell>
        <mxCell id="6nYdl9-kLl9mEXdUdbPc-29" style="line;strokeWidth=1;fillColor=none;align=left;verticalAlign=middle;spacingTop=-1;spacingLeft=3;spacingRight=3;rotatable=0;labelPosition=right;points=[];portConstraint=eastwest;strokeColor=inherit;" vertex="1" parent="6nYdl9-kLl9mEXdUdbPc-28">
          <mxGeometry y="47.2" width="167" height="8" as="geometry" />
        </mxCell>
        <mxCell id="6nYdl9-kLl9mEXdUdbPc-30" value="+DoctorCard()" style="text;strokeColor=none;fillColor=none;align=left;verticalAlign=top;spacingLeft=4;spacingRight=4;overflow=hidden;rotatable=0;points=[[0,0.5],[1,0.5]];portConstraint=eastwest;" vertex="1" parent="6nYdl9-kLl9mEXdUdbPc-28">
          <mxGeometry y="55.2" width="167" height="47" as="geometry" />
        </mxCell>
        <mxCell id="6nYdl9-kLl9mEXdUdbPc-31" value="Patient" style="swimlane;fontStyle=1;align=center;verticalAlign=top;childLayout=stackLayout;horizontal=1;startSize=47.2;horizontalStack=0;resizeParent=1;resizeParentMax=0;resizeLast=0;collapsible=0;marginBottom=0;" vertex="1" parent="1">
          <mxGeometry x="108" y="1077" width="122" height="102.2" as="geometry" />
        </mxCell>
        <mxCell id="6nYdl9-kLl9mEXdUdbPc-32" style="line;strokeWidth=1;fillColor=none;align=left;verticalAlign=middle;spacingTop=-1;spacingLeft=3;spacingRight=3;rotatable=0;labelPosition=right;points=[];portConstraint=eastwest;strokeColor=inherit;" vertex="1" parent="6nYdl9-kLl9mEXdUdbPc-31">
          <mxGeometry y="47.2" width="122" height="8" as="geometry" />
        </mxCell>
        <mxCell id="6nYdl9-kLl9mEXdUdbPc-33" value="+Patient()" style="text;strokeColor=none;fillColor=none;align=left;verticalAlign=top;spacingLeft=4;spacingRight=4;overflow=hidden;rotatable=0;points=[[0,0.5],[1,0.5]];portConstraint=eastwest;" vertex="1" parent="6nYdl9-kLl9mEXdUdbPc-31">
          <mxGeometry y="55.2" width="122" height="47" as="geometry" />
        </mxCell>
        <mxCell id="6nYdl9-kLl9mEXdUdbPc-34" value="&lt;&lt;Enum&gt;&gt;&#xa;Role" style="swimlane;fontStyle=1;align=center;verticalAlign=top;childLayout=stackLayout;horizontal=1;startSize=60;horizontalStack=0;resizeParent=1;resizeParentMax=0;resizeLast=0;collapsible=0;marginBottom=0;" vertex="1" parent="1">
          <mxGeometry x="753" y="1276" width="80" height="80" as="geometry" />
        </mxCell>
        <mxCell id="6nYdl9-kLl9mEXdUdbPc-35" style="line;strokeWidth=1;fillColor=none;align=left;verticalAlign=middle;spacingTop=-1;spacingLeft=3;spacingRight=3;rotatable=0;labelPosition=right;points=[];portConstraint=eastwest;strokeColor=inherit;" vertex="1" parent="6nYdl9-kLl9mEXdUdbPc-34">
          <mxGeometry y="60" width="80" height="20" as="geometry" />
        </mxCell>
        <mxCell id="6nYdl9-kLl9mEXdUdbPc-36" value="creates" style="curved=1;startArrow=none;endArrow=open;endSize=12;exitX=0;exitY=0.56;entryX=0.5;entryY=0;rounded=0;" edge="1" parent="1" source="6nYdl9-kLl9mEXdUdbPc-1" target="6nYdl9-kLl9mEXdUdbPc-4">
          <mxGeometry relative="1" as="geometry">
            <Array as="points">
              <mxPoint x="169" y="643" />
            </Array>
          </mxGeometry>
        </mxCell>
        <mxCell id="6nYdl9-kLl9mEXdUdbPc-37" value="creates" style="curved=1;startArrow=none;endArrow=open;endSize=12;exitX=0;exitY=0.62;entryX=0.5;entryY=0;rounded=0;" edge="1" parent="1" source="6nYdl9-kLl9mEXdUdbPc-1" target="6nYdl9-kLl9mEXdUdbPc-7">
          <mxGeometry relative="1" as="geometry">
            <Array as="points">
              <mxPoint x="504" y="643" />
            </Array>
          </mxGeometry>
        </mxCell>
        <mxCell id="6nYdl9-kLl9mEXdUdbPc-38" value="creates" style="curved=1;startArrow=none;endArrow=open;endSize=12;exitX=0.5;exitY=1;entryX=0.5;entryY=0;rounded=0;" edge="1" parent="1" source="6nYdl9-kLl9mEXdUdbPc-1" target="6nYdl9-kLl9mEXdUdbPc-10">
          <mxGeometry relative="1" as="geometry">
            <Array as="points" />
          </mxGeometry>
        </mxCell>
        <mxCell id="6nYdl9-kLl9mEXdUdbPc-39" value="creates" style="curved=1;startArrow=none;endArrow=open;endSize=12;exitX=0.99;exitY=0.64;entryX=0.5;entryY=0;rounded=0;" edge="1" parent="1" source="6nYdl9-kLl9mEXdUdbPc-1" target="6nYdl9-kLl9mEXdUdbPc-13">
          <mxGeometry relative="1" as="geometry">
            <Array as="points">
              <mxPoint x="1081" y="643" />
            </Array>
          </mxGeometry>
        </mxCell>
        <mxCell id="6nYdl9-kLl9mEXdUdbPc-40" value="creates" style="curved=1;startArrow=none;endArrow=open;endSize=12;exitX=0.99;exitY=0.57;entryX=0.5;entryY=0;rounded=0;" edge="1" parent="1" source="6nYdl9-kLl9mEXdUdbPc-1" target="6nYdl9-kLl9mEXdUdbPc-16">
          <mxGeometry relative="1" as="geometry">
            <Array as="points">
              <mxPoint x="1375" y="643" />
            </Array>
          </mxGeometry>
        </mxCell>
        <mxCell id="6nYdl9-kLl9mEXdUdbPc-41" value="uses" style="curved=1;startArrow=none;endArrow=open;endSize=12;exitX=0.5;exitY=1;entryX=0.5;entryY=0;rounded=0;" edge="1" parent="1" source="6nYdl9-kLl9mEXdUdbPc-4" target="6nYdl9-kLl9mEXdUdbPc-19">
          <mxGeometry relative="1" as="geometry">
            <Array as="points" />
          </mxGeometry>
        </mxCell>
        <mxCell id="6nYdl9-kLl9mEXdUdbPc-42" value="uses" style="curved=1;startArrow=none;endArrow=open;endSize=12;exitX=0.5;exitY=1;entryX=0.4;entryY=0;rounded=0;" edge="1" parent="1" source="6nYdl9-kLl9mEXdUdbPc-7" target="6nYdl9-kLl9mEXdUdbPc-22">
          <mxGeometry relative="1" as="geometry">
            <Array as="points">
              <mxPoint x="504" y="842" />
            </Array>
          </mxGeometry>
        </mxCell>
        <mxCell id="6nYdl9-kLl9mEXdUdbPc-43" value="uses" style="curved=1;startArrow=none;endArrow=open;endSize=12;exitX=0.16;exitY=1;entryX=1;entryY=0.02;rounded=0;" edge="1" parent="1" source="6nYdl9-kLl9mEXdUdbPc-10" target="6nYdl9-kLl9mEXdUdbPc-22">
          <mxGeometry relative="1" as="geometry">
            <Array as="points">
              <mxPoint x="683" y="842" />
            </Array>
          </mxGeometry>
        </mxCell>
        <mxCell id="6nYdl9-kLl9mEXdUdbPc-44" value="uses" style="curved=1;startArrow=none;endArrow=open;endSize=12;exitX=0.77;exitY=1;entryX=0.17;entryY=0;rounded=0;" edge="1" parent="1" source="6nYdl9-kLl9mEXdUdbPc-10" target="6nYdl9-kLl9mEXdUdbPc-25">
          <mxGeometry relative="1" as="geometry">
            <Array as="points">
              <mxPoint x="909" y="842" />
            </Array>
          </mxGeometry>
        </mxCell>
        <mxCell id="6nYdl9-kLl9mEXdUdbPc-45" value="modifies" style="curved=1;startArrow=none;endArrow=open;endSize=12;exitX=0.5;exitY=1;entryX=0.58;entryY=0;rounded=0;" edge="1" parent="1" source="6nYdl9-kLl9mEXdUdbPc-13" target="6nYdl9-kLl9mEXdUdbPc-25">
          <mxGeometry relative="1" as="geometry">
            <Array as="points">
              <mxPoint x="1081" y="842" />
            </Array>
          </mxGeometry>
        </mxCell>
        <mxCell id="6nYdl9-kLl9mEXdUdbPc-46" value="manages" style="curved=1;startArrow=none;endArrow=open;endSize=12;exitX=0.5;exitY=1;entryX=0.5;entryY=0;rounded=0;" edge="1" parent="1" source="6nYdl9-kLl9mEXdUdbPc-19" target="6nYdl9-kLl9mEXdUdbPc-31">
          <mxGeometry relative="1" as="geometry">
            <Array as="points" />
          </mxGeometry>
        </mxCell>
        <mxCell id="6nYdl9-kLl9mEXdUdbPc-47" value="manages" style="curved=1;startArrow=none;endArrow=open;endSize=12;exitX=0.5;exitY=1;entryX=0.5;entryY=0;rounded=0;" edge="1" parent="1" source="6nYdl9-kLl9mEXdUdbPc-22" target="6nYdl9-kLl9mEXdUdbPc-28">
          <mxGeometry relative="1" as="geometry">
            <Array as="points" />
          </mxGeometry>
        </mxCell>
        <mxCell id="6nYdl9-kLl9mEXdUdbPc-48" value="has" style="curved=1;startArrow=none;endArrow=open;endSize=12;exitX=0.5;exitY=1;entryX=0;entryY=0.37;rounded=0;" edge="1" parent="1" source="6nYdl9-kLl9mEXdUdbPc-28" target="6nYdl9-kLl9mEXdUdbPc-34">
          <mxGeometry relative="1" as="geometry">
            <Array as="points">
              <mxPoint x="532" y="1240" />
            </Array>
          </mxGeometry>
        </mxCell>
        <mxCell id="6nYdl9-kLl9mEXdUdbPc-49" value="controls" style="curved=1;startArrow=none;endArrow=open;endSize=12;exitX=0.5;exitY=1;entryX=1;entryY=0.37;rounded=0;" edge="1" parent="1" source="6nYdl9-kLl9mEXdUdbPc-25" target="6nYdl9-kLl9mEXdUdbPc-34">
          <mxGeometry relative="1" as="geometry">
            <Array as="points">
              <mxPoint x="1046" y="1240" />
            </Array>
          </mxGeometry>
        </mxCell>
      </root>
    </mxGraphModel>
  </diagram>
</mxfile>
